<svg
  xmlns:dc="http://purl.org/dc/elements/1.1/"
  xmlns:cc="http://creativecommons.org/ns#"
  xmlns:rdf="http://www.w3.org/1999/02/22-rdf-syntax-ns#"
  xmlns:svg="http://www.w3.org/2000/svg"
  xmlns="http://www.w3.org/2000/svg"
  xmlns:sodipodi="http://sodipodi.sourceforge.net/DTD/sodipodi-0.dtd"
  xmlns:inkscape="http://www.inkscape.org/namespaces/inkscape"
  version="1.1"
  x="0px"
  y="0px"
  viewBox="0 0 100 125"
>
  <g transform="translate(0,-952.36218)">
    <path
      style="
        text-indent: 0;
        text-transform: none;
        direction: ltr;
        color: #000000;
        enable-background: accumulate;
      "
      d="M 15.000001,964.3753 C 10.60259,964.3753 7,967.97789 7,972.3753 l 0,40 c 0,4.3974 3.60259,8 8.000001,8 l 8.968749,0 -1.8125,17.7812 c -0.0727,0.8049 0.39622,1.6315 1.12438,1.9821 0.72815,0.3506 1.66673,0.2017 2.25062,-0.3571 L 45,1020.3753 l 7,0 0,3.0625 c 0,3.263 2.70421,5.9375 5.96875,5.9375 l 15.03125,0 10.59375,10.4062 c 0.59983,0.5941 1.59449,0.7418 2.34108,0.3478 0.7466,-0.3941 1.18588,-1.2986 1.03392,-2.129 l -1.53125,-8.625 1.59375,0 c 3.26454,0 5.96875,-2.6745 5.96875,-5.9375 l 0,-19.125 c 0,-3.263 -2.70421,-5.9375 -5.96875,-5.9375 l -6.03125,0 0,-26 c 0,-4.39741 -3.60259,-8 -8,-8 z m 0,4 57.999999,0 c 2.25061,0 4,1.74939 4,4 l 0,40 c 0,2.2506 -1.74939,4 -4,4 l -28.8125,0 c -0.51776,0 -1.0341,0.2025 -1.40625,0.5625 l -16.09375,16.0312 1.5,-14.4062 c 0.1042,-1.1078 -0.88731,-2.1923 -2,-2.1875 l -11.1875,0 c -2.25061,0 -4,-1.7494 -4,-4 l 0,-40 c 0,-2.25061 1.74939,-4 4,-4 z m 6.999999,9 c -1.10457,0 -2,0.8954 -2,2 0,1.1046 0.89543,2 2,2 l 44,0 c 1.10457,0 2,-0.8954 2,-2 0,-1.1046 -0.89543,-2 -2,-2 z m 0,13 c -1.10457,0 -2,0.8954 -2,2 0,1.1046 0.89543,2 2,2 l 44,0 c 1.10457,0 2,-0.8954 2,-2 0,-1.1046 -0.89543,-2 -2,-2 z m 59,12 6.03125,0 c 1.12788,0 1.96875,0.8449 1.96875,1.9375 l 0,19.125 c 0,1.0926 -0.84087,1.9375 -1.96875,1.9375 l -3.96875,0 c -1.16181,0 -2.1683,1.1992 -1.96875,2.3437 l 0.84375,4.8438 -6.71875,-6.625 c -0.37215,-0.36 -0.88849,-0.5665 -1.40625,-0.5625 l -15.84375,0 c -1.1279,0 -1.96875,-0.8449 -1.96875,-1.9375 l 0,-3.0625 17,0 c 4.39741,0 8,-3.6026 8,-8 z m -59,1 c -1.10457,0 -2,0.8954 -2,2 0,1.1046 0.89543,2 2,2 l 44,0 c 1.10457,0 2,-0.8954 2,-2 0,-1.1046 -0.89543,-2 -2,-2 z"
      fill="#000000"
      fill-opacity="1"
      stroke="none"
      marker="none"
      visibility="visible"
      display="inline"
      overflow="visible"
    />
  </g>
</svg>